<?xml version="1.0" encoding="UTF-8" standalone="no"?>
<!-- Created with Inkscape (http://www.inkscape.org/) -->

<svg
   width="1200mm"
   height="400mm"
   viewBox="0 0 1200 400"
   version="1.1"
   id="svg5"
   inkscape:version="1.2.2 (b0a8486541, 2022-12-01)"
   sodipodi:docname="masscollabsgamingstudios.svg"
   inkscape:export-filename="circle.png"
   inkscape:export-xdpi="96"
   inkscape:export-ydpi="96"
   xmlns:inkscape="http://www.inkscape.org/namespaces/inkscape"
   xmlns:sodipodi="http://sodipodi.sourceforge.net/DTD/sodipodi-0.dtd"
   xmlns="http://www.w3.org/2000/svg"
   xmlns:svg="http://www.w3.org/2000/svg">
  <sodipodi:namedview
     id="namedview7"
     pagecolor="#ffffff"
     bordercolor="#666666"
     borderopacity="1.0"
     inkscape:pageshadow="2"
     inkscape:pageopacity="0.0"
     inkscape:pagecheckerboard="0"
     inkscape:document-units="mm"
     showgrid="false"
     inkscape:zoom="0.26332361"
     inkscape:cx="2202.613"
     inkscape:cy="581.03411"
     inkscape:window-width="1920"
     inkscape:window-height="1007"
     inkscape:window-x="0"
     inkscape:window-y="0"
     inkscape:window-maximized="1"
     inkscape:current-layer="layer1-3"
     inkscape:showpageshadow="2"
     inkscape:deskcolor="#d1d1d1" />
  <defs
     id="defs2" />
  <g
     inkscape:label="Layer 1"
     inkscape:groupmode="layer"
     id="layer1">
    <g
       id="layer1-3"
       transform="matrix(0.81587897,0,0,0.78278607,-9.2298517,-3.2093829)">
      <path
         id="path4005"
         style="opacity:1;fill:#4c2447;fill-opacity:1;stroke:none;stroke-width:10;stroke-linecap:round;stroke-linejoin:round;stroke-miterlimit:4;stroke-dasharray:none;stroke-opacity:1"
         d="m 255.71875,33.5625 c -76.77913,0 -144.61008,38.523618 -185.21875,97.28125 l 43.5,25.125 c 31.8111,-43.85371 83.43839,-72.40625 141.71875,-72.40625 58.28036,2e-6 109.90765,28.55254 141.71875,72.40625 l 43.5,-25.125 C 400.32883,72.086118 332.49788,33.5625 255.71875,33.5625 Z" />
      <path
         id="path4003"
         style="opacity:1;fill:#4c2447;fill-opacity:1;stroke:none;stroke-width:10;stroke-linecap:round;stroke-linejoin:round;stroke-miterlimit:4;stroke-dasharray:none;stroke-opacity:1"
         d="m 46.8125,174.9375 c -10.369554,25.85832 -16.09375,54.07504 -16.09375,83.625 0,115.75182 87.54875,211.17856 200,223.625 V 431.75 c -84.76463,-12.14845 -150,-85.07981 -150,-173.1875 10e-7,-20.44578 3.515303,-40.06814 9.96875,-58.3125 z" />
      <path
         id="path3918"
         style="opacity:1;fill:#4c2447;fill-opacity:1;stroke:none;stroke-width:10;stroke-linecap:round;stroke-linejoin:round;stroke-miterlimit:4;stroke-dasharray:none;stroke-opacity:1"
         d="M 464.625,174.9375 420.75,200.25 c 6.45345,18.24436 9.96875,37.86672 9.96875,58.3125 0,88.10768 -65.23536,161.03905 -150,173.1875 v 50.4375 c 112.45124,-12.44644 199.99999,-107.87318 200,-223.625 0,-29.54996 -5.7242,-57.76668 -16.09375,-83.625 z" />
      <text
         xml:space="preserve"
         style="font-style:italic;font-weight:bold;font-size:63.5666px;font-family:sans-serif;-inkscape-font-specification:'sans-serif Bold Italic';fill:#4c2447;stroke:#000000;stroke-width:0.331596;stroke-linecap:round;stroke-dasharray:0.331596, 0.331596"
         x="612.53796"
         y="230.32959"
         id="text319"
         transform="scale(0.97950955,1.0209191)"><tspan
           sodipodi:role="line"
           id="tspan317"
           style="stroke-width:0.331598"
           x="612.53796"
           y="230.32959">Explore the limits !...</tspan></text>
      <text
         xml:space="preserve"
         style="font-style:italic;font-weight:bold;font-size:63.5666px;font-family:sans-serif;-inkscape-font-specification:'sans-serif Bold Italic';fill:#4c2447;stroke:#000000;stroke-width:0.331596;stroke-linecap:round;stroke-dasharray:0.331596, 0.331596"
         x="612.53796"
         y="346.00101"
         id="text323"
         transform="scale(0.97950955,1.0209191)"><tspan
           sodipodi:role="line"
           id="tspan321"
           style="stroke-width:0.331598"
           x="612.53796"
           y="346.00101">Masscollabs Gaming Studios</tspan></text>
    </g>
  </g>
</svg>
